<?xml version="1.0" encoding="iso-8859-1"?>
<!-- Generator: Adobe Illustrator 22.1.0, SVG Export Plug-In . SVG Version: 6.00 Build 0)  -->
<svg version="1.1" id="chatbot" xmlns="http://www.w3.org/2000/svg" xmlns:xlink="http://www.w3.org/1999/xlink" x="0px" y="0px"
	 viewBox="0 0 800 600" enable-background="new 0 0 800 600" xml:space="preserve">
<linearGradient id="SVGID_1_" gradientUnits="userSpaceOnUse" x1="508" y1="91" x2="508" y2="338.0729">
	<stop  offset="0" style="stop-color:#FFDC2E"/>
	<stop  offset="0.0147" style="stop-color:#FFDD34"/>
	<stop  offset="0.1575" style="stop-color:#FFE669"/>
	<stop  offset="0.302" style="stop-color:#FFEE97"/>
	<stop  offset="0.4454" style="stop-color:#FFF4BD"/>
	<stop  offset="0.5876" style="stop-color:#FFF9DA"/>
	<stop  offset="0.7282" style="stop-color:#FFFCEE"/>
	<stop  offset="0.8666" style="stop-color:#FFFEFB"/>
	<stop  offset="1" style="stop-color:#FFFFFF"/>
</linearGradient>
<circle fill="url(#SVGID_1_)" cx="508" cy="214" r="120"/>
<linearGradient id="SVGID_2_" gradientUnits="userSpaceOnUse" x1="208" y1="502" x2="592" y2="502">
	<stop  offset="0" style="stop-color:#EDEDED"/>
	<stop  offset="1" style="stop-color:#DDDDDD"/>
</linearGradient>
<rect x="208" y="498" fill="url(#SVGID_2_)" width="384" height="8"/>
<path fill="#E8E8E8" d="M239.191,222.427l1.215,3.921c0.184,0.595,0.65,1.061,1.245,1.245l3.921,1.215
	c0.35,0.108,0.35,0.604,0,0.713l-3.921,1.215c-0.595,0.184-1.061,0.65-1.245,1.245l-1.215,3.921c-0.108,0.35-0.604,0.35-0.713,0
	l-1.215-3.921c-0.184-0.595-0.65-1.061-1.245-1.245l-3.921-1.215c-0.35-0.108-0.35-0.604,0-0.713l3.921-1.215
	c0.595-0.184,1.061-0.65,1.245-1.245l1.215-3.921C238.587,222.077,239.083,222.077,239.191,222.427z"/>
<linearGradient id="SVGID_3_" gradientUnits="userSpaceOnUse" x1="503" y1="498.0941" x2="503" y2="489.9182">
	<stop  offset="0" style="stop-color:#000000;stop-opacity:0.05"/>
	<stop  offset="1" style="stop-color:#302926;stop-opacity:0"/>
</linearGradient>
<path fill="url(#SVGID_3_)" d="M436,498h126c4.418,0,8-3.582,8-8l0,0H436V498z"/>
<linearGradient id="SVGID_4_" gradientUnits="userSpaceOnUse" x1="490" y1="397.3055" x2="490" y2="496.407">
	<stop  offset="0" style="stop-color:#DDDDDD"/>
	<stop  offset="0.5567" style="stop-color:#D9D9D9"/>
	<stop  offset="1" style="stop-color:#D0D0D0"/>
</linearGradient>
<path fill="url(#SVGID_4_)" d="M562,498H418c-4.418,0-8-3.582-8-8v-84c0-4.418,3.582-8,8-8h144c4.418,0,8,3.582,8,8v84
	C570,494.418,566.418,498,562,498z"/>
<path opacity="0.15" d="M492,456c0,2.209-1.791,4-4,4h-20c-2.209,0-4-1.791-4-4v-12c0-2.209,1.791-4,4-4h20c2.209,0,4,1.791,4,4V456
	z"/>
<linearGradient id="SVGID_5_" gradientUnits="userSpaceOnUse" x1="478" y1="437.5" x2="478" y2="458.0548">
	<stop  offset="0" style="stop-color:#FFFFFF"/>
	<stop  offset="0.5172" style="stop-color:#FBFBFB"/>
	<stop  offset="1" style="stop-color:#F0F0F0"/>
</linearGradient>
<path fill="url(#SVGID_5_)" d="M492,454c0,2.209-1.791,4-4,4h-20c-2.209,0-4-1.791-4-4v-12c0-2.209,1.791-4,4-4h20
	c2.209,0,4,1.791,4,4V454z"/>
<path opacity="0.15" d="M496,490h-26c-2.209,0-4-1.791-4-4v-12c0-2.209,1.791-4,4-4h26c2.209,0,4,1.791,4,4v12
	C500,488.209,498.209,490,496,490z"/>
<linearGradient id="SVGID_6_" gradientUnits="userSpaceOnUse" x1="483" y1="467.6667" x2="483" y2="487.6917">
	<stop  offset="0" style="stop-color:#FFFFFF"/>
	<stop  offset="0.5172" style="stop-color:#FBFBFB"/>
	<stop  offset="1" style="stop-color:#F0F0F0"/>
</linearGradient>
<path fill="url(#SVGID_6_)" d="M496,488h-26c-2.209,0-4-1.791-4-4v-12c0-2.209,1.791-4,4-4h26c2.209,0,4,1.791,4,4v12
	C500,486.209,498.209,488,496,488z"/>
<path opacity="0.15" d="M530,456c0,2.209-1.791,4-4,4h-22c-2.209,0-4-1.791-4-4v-12c0-2.209,1.791-4,4-4h22c2.209,0,4,1.791,4,4V456
	z"/>
<path opacity="0.15" d="M496,430h-30c-2.209,0-4-1.791-4-4v-12c0-2.209,1.791-4,4-4h30c2.209,0,4,1.791,4,4v12
	C500,428.209,498.209,430,496,430z"/>
<path opacity="0.15" d="M526,430h-12c-2.209,0-4-1.791-4-4v-12c0-2.209,1.791-4,4-4h12c2.209,0,4,1.791,4,4v12
	C530,428.209,528.209,430,526,430z"/>
<path opacity="0.15" d="M556,430h-12c-2.209,0-4-1.791-4-4v-12c0-2.209,1.791-4,4-4h12c2.209,0,4,1.791,4,4v12
	C560,428.209,558.209,430,556,430z"/>
<path opacity="0.15" d="M556,440h-12c-2.209,0-4,1.791-4,4v24c0,1.105-0.895,2-2,2h-24c-2.209,0-4,1.791-4,4v12c0,2.209,1.791,4,4,4
	h42c2.209,0,4-1.791,4-4v-42C560,441.791,558.209,440,556,440z"/>
<linearGradient id="SVGID_7_" gradientUnits="userSpaceOnUse" x1="515" y1="437.5" x2="515" y2="458.0548">
	<stop  offset="0" style="stop-color:#FFFFFF"/>
	<stop  offset="0.5172" style="stop-color:#FBFBFB"/>
	<stop  offset="1" style="stop-color:#F0F0F0"/>
</linearGradient>
<path fill="url(#SVGID_7_)" d="M530,454c0,2.209-1.791,4-4,4h-22c-2.209,0-4-1.791-4-4v-12c0-2.209,1.791-4,4-4h22
	c2.209,0,4,1.791,4,4V454z"/>
<linearGradient id="SVGID_8_" gradientUnits="userSpaceOnUse" x1="481" y1="407.6667" x2="481" y2="427.6917">
	<stop  offset="0" style="stop-color:#FFFFFF"/>
	<stop  offset="0.5172" style="stop-color:#FBFBFB"/>
	<stop  offset="1" style="stop-color:#F0F0F0"/>
</linearGradient>
<path fill="url(#SVGID_8_)" d="M496,428h-30c-2.209,0-4-1.791-4-4v-12c0-2.209,1.791-4,4-4h30c2.209,0,4,1.791,4,4v12
	C500,426.209,498.209,428,496,428z"/>
<linearGradient id="SVGID_9_" gradientUnits="userSpaceOnUse" x1="520" y1="407.6667" x2="520" y2="427.6917">
	<stop  offset="0" style="stop-color:#FFFFFF"/>
	<stop  offset="0.5172" style="stop-color:#FBFBFB"/>
	<stop  offset="1" style="stop-color:#F0F0F0"/>
</linearGradient>
<path fill="url(#SVGID_9_)" d="M526,428h-12c-2.209,0-4-1.791-4-4v-12c0-2.209,1.791-4,4-4h12c2.209,0,4,1.791,4,4v12
	C530,426.209,528.209,428,526,428z"/>
<linearGradient id="SVGID_10_" gradientUnits="userSpaceOnUse" x1="550" y1="407.6667" x2="550" y2="427.6917">
	<stop  offset="0" style="stop-color:#FFFFFF"/>
	<stop  offset="0.5172" style="stop-color:#FBFBFB"/>
	<stop  offset="1" style="stop-color:#F0F0F0"/>
</linearGradient>
<path fill="url(#SVGID_10_)" d="M556,428h-12c-2.209,0-4-1.791-4-4v-12c0-2.209,1.791-4,4-4h12c2.209,0,4,1.791,4,4v12
	C560,426.209,558.209,428,556,428z"/>
<linearGradient id="SVGID_11_" gradientUnits="userSpaceOnUse" x1="535" y1="438.3472" x2="535" y2="489.0714">
	<stop  offset="0" style="stop-color:#FFFFFF"/>
	<stop  offset="0.5172" style="stop-color:#FBFBFB"/>
	<stop  offset="1" style="stop-color:#F0F0F0"/>
</linearGradient>
<path fill="url(#SVGID_11_)" d="M556,438h-12c-2.209,0-4,1.791-4,4v22c0,1.105-0.895,4-2,4h-24c-2.209,0-4,1.791-4,4v12
	c0,2.209,1.791,4,4,4h42c2.209,0,4-1.791,4-4v-42C560,439.791,558.209,438,556,438z"/>
<linearGradient id="SVGID_12_" gradientUnits="userSpaceOnUse" x1="246.9874" y1="385.0019" x2="269.0674" y2="473.3221" gradientTransform="matrix(0.9996 -0.0295 0.0295 0.9996 -6.5604 11.1799)">
	<stop  offset="0" style="stop-color:#B6DD54"/>
	<stop  offset="0.1433" style="stop-color:#B2DC54"/>
	<stop  offset="0.2918" style="stop-color:#A5D753"/>
	<stop  offset="0.4428" style="stop-color:#91D051"/>
	<stop  offset="0.5954" style="stop-color:#74C64F"/>
	<stop  offset="0.7494" style="stop-color:#4EB94D"/>
	<stop  offset="0.9024" style="stop-color:#21A949"/>
	<stop  offset="1" style="stop-color:#009E47"/>
</linearGradient>
<path fill="url(#SVGID_12_)" d="M282.366,458.93c5.693-19.582-2.356-46.417-17.885-59.634l-10.603-9.024
	c-1.607-1.368-4.09-0.623-4.679,1.403l-3.887,13.369c-5.693,19.582,2.356,46.417,17.885,59.634l14.027,11.937L282.366,458.93z"/>
<linearGradient id="SVGID_13_" gradientUnits="userSpaceOnUse" x1="316.3556" y1="394.8984" x2="403.8534" y2="394.8984" gradientTransform="matrix(0.6243 0.7812 -0.7812 0.6243 329.4507 -78.5821)">
	<stop  offset="0" style="stop-color:#B6DD54"/>
	<stop  offset="0.1433" style="stop-color:#B2DC54"/>
	<stop  offset="0.2918" style="stop-color:#A5D753"/>
	<stop  offset="0.4428" style="stop-color:#91D051"/>
	<stop  offset="0.5954" style="stop-color:#74C64F"/>
	<stop  offset="0.7494" style="stop-color:#4EB94D"/>
	<stop  offset="0.9024" style="stop-color:#21A949"/>
	<stop  offset="1" style="stop-color:#009E47"/>
</linearGradient>
<path fill="url(#SVGID_13_)" d="M272.286,475.657c-2.776-27.7-21.549-51.193-47.955-60.011l-3.15-1.052
	c-2.001-0.668-4.026,0.95-3.816,3.049l0.331,3.305c2.776,27.7,21.549,51.193,47.955,60.011l7.415,2.476L272.286,475.657z"/>
<linearGradient id="SVGID_14_" gradientUnits="userSpaceOnUse" x1="212.8283" y1="420.0565" x2="253.2312" y2="472.9607">
	<stop  offset="0" style="stop-color:#302926;stop-opacity:0"/>
	<stop  offset="1" style="stop-color:#000000;stop-opacity:0.07"/>
</linearGradient>
<path fill="url(#SVGID_14_)" d="M259.62,470h-15.366c-14.788-14-24.603-29.333-26.555-48.746l-0.332-3.463
	c-0.072-0.636,0.072-0.985,0.361-1.476L259.62,470z"/>
<linearGradient id="SVGID_15_" gradientUnits="userSpaceOnUse" x1="230" y1="482" x2="320" y2="482">
	<stop  offset="0" style="stop-color:#7C483E"/>
	<stop  offset="1" style="stop-color:#896257"/>
</linearGradient>
<path fill="url(#SVGID_15_)" d="M300,498h-50c-11.046,0-20-8.954-20-20v-12h90v12C320,489.046,311.046,498,300,498z"/>
<linearGradient id="SVGID_16_" gradientUnits="userSpaceOnUse" x1="230" y1="482" x2="258" y2="482">
	<stop  offset="0" style="stop-color:#000000;stop-opacity:0.15"/>
	<stop  offset="0.1227" style="stop-color:#0B0909;stop-opacity:0.1316"/>
	<stop  offset="0.421" style="stop-color:#1F1B19;stop-opacity:0.0868"/>
	<stop  offset="0.7156" style="stop-color:#2C2523;stop-opacity:0.0427"/>
	<stop  offset="1" style="stop-color:#302926;stop-opacity:0"/>
</linearGradient>
<path fill="url(#SVGID_16_)" d="M258,498h-8c-11.04,0-20-8.96-20-20v-12h8v12C238,489.04,246.96,498,258,498z"/>
<linearGradient id="SVGID_17_" gradientUnits="userSpaceOnUse" x1="226" y1="464" x2="324" y2="464">
	<stop  offset="0" style="stop-color:#B16464"/>
	<stop  offset="1" style="stop-color:#936864"/>
</linearGradient>
<path fill="url(#SVGID_17_)" d="M322,468h-94c-1.105,0-2-1.677-2-2.782v-4c0-1.105,0.895-1.218,2-1.218h94c1.151,0,2,0.151,2,1.302
	v3.833C324,466.286,323.151,468,322,468z"/>
<linearGradient id="SVGID_18_" gradientUnits="userSpaceOnUse" x1="265" y1="468.2815" x2="265" y2="472.0315">
	<stop  offset="0" style="stop-color:#000000;stop-opacity:0.07"/>
	<stop  offset="1" style="stop-color:#302926;stop-opacity:0"/>
</linearGradient>
<rect x="230" y="468" fill="url(#SVGID_18_)" width="70" height="4"/>
<linearGradient id="SVGID_19_" gradientUnits="userSpaceOnUse" x1="244.3175" y1="418.7267" x2="273.5675" y2="460.4767">
	<stop  offset="0" style="stop-color:#302926;stop-opacity:0"/>
	<stop  offset="0.2844" style="stop-color:#2C2523;stop-opacity:0.0199"/>
	<stop  offset="0.579" style="stop-color:#1F1B19;stop-opacity:0.0405"/>
	<stop  offset="0.8773" style="stop-color:#0B0909;stop-opacity:0.0614"/>
	<stop  offset="1" style="stop-color:#000000;stop-opacity:0.07"/>
</linearGradient>
<path fill="url(#SVGID_19_)" d="M275.36,460h-6.46c-4.64-13.72-13.4-25.66-25-34.2c-0.14-1.32-0.26-2.64-0.34-3.96
	C258.44,430.3,269.74,443.9,275.36,460z"/>
<linearGradient id="SVGID_20_" gradientUnits="userSpaceOnUse" x1="376" y1="161.3333" x2="376" y2="497.3333">
	<stop  offset="0" style="stop-color:#45A0FF"/>
	<stop  offset="0.0516" style="stop-color:#4B96FE"/>
	<stop  offset="0.3713" style="stop-color:#6C60F9"/>
	<stop  offset="0.6473" style="stop-color:#8538F6"/>
	<stop  offset="0.8659" style="stop-color:#9420F4"/>
	<stop  offset="1" style="stop-color:#9917F3"/>
</linearGradient>
<path fill="url(#SVGID_20_)" d="M454,162H302c-11.046,0-20,8.954-20,20v46c0,0.779-0.44,1.492-1.138,1.84l-0.655,0.327
	c-1.353,0.676-2.208,2.059-2.208,3.572v25.064c0,1.513,0.855,2.896,2.208,3.572l0.655,0.327c0.697,0.349,1.137,1.061,1.137,1.84V274
	c0,0.779-0.44,1.492-1.138,1.841l-0.655,0.327c-1.353,0.676-2.208,2.059-2.208,3.572v22.332c0,1.325,0.655,2.565,1.75,3.312
	l1.356,0.925C281.665,306.69,282,307.323,282,308v170c0,11.046,8.954,20,20,20h152c11.046,0,20-8.954,20-20V182
	C474,170.954,465.046,162,454,162z"/>
<path opacity="0.15" d="M456,464H300c-3.314,0-6-2.686-6-6V188c0-3.314,2.686-6,6-6h156c3.314,0,6,2.686,6,6v270
	C462,461.314,459.314,464,456,464z"/>
<linearGradient id="SVGID_21_" gradientUnits="userSpaceOnUse" x1="378" y1="463" x2="378" y2="182.1709">
	<stop  offset="0" style="stop-color:#55C2FF"/>
	<stop  offset="0.1665" style="stop-color:#5EC7FF"/>
	<stop  offset="0.4381" style="stop-color:#76D4FF"/>
	<stop  offset="0.7789" style="stop-color:#9EEAFF"/>
	<stop  offset="1" style="stop-color:#BBFAFF"/>
</linearGradient>
<path fill="url(#SVGID_21_)" d="M456,462H300c-3.314,0-6-2.686-6-6V186c0-3.314,2.686-6,6-6h156c3.314,0,6,2.686,6,6v270
	C462,459.314,459.314,462,456,462z"/>
<linearGradient id="SVGID_22_" gradientUnits="userSpaceOnUse" x1="350" y1="171" x2="406" y2="171">
	<stop  offset="0" style="stop-color:#302926;stop-opacity:0.15"/>
	<stop  offset="1" style="stop-color:#000000;stop-opacity:0.3"/>
</linearGradient>
<path fill="url(#SVGID_22_)" d="M406,171c0-1.657-1.343-3-3-3h-50c-1.657,0-3,1.343-3,3l0,0c0,1.657,1.343,3,3,3h50
	C404.657,174,406,172.657,406,171L406,171z"/>
<linearGradient id="SVGID_23_" gradientUnits="userSpaceOnUse" x1="378" y1="470" x2="378" y2="490.1262">
	<stop  offset="0" style="stop-color:#302926;stop-opacity:0.15"/>
	<stop  offset="1" style="stop-color:#000000;stop-opacity:0.3"/>
</linearGradient>
<circle fill="url(#SVGID_23_)" cx="378" cy="480" r="10"/>
<linearGradient id="SVGID_24_" gradientUnits="userSpaceOnUse" x1="365" y1="450" x2="365" y2="429.4926">
	<stop  offset="0" style="stop-color:#FFFFED;stop-opacity:0.25"/>
	<stop  offset="1" style="stop-color:#FFFFFF;stop-opacity:0.5"/>
</linearGradient>
<path fill="url(#SVGID_24_)" d="M424,440c0,5.523-4.477,10-10,10h-98c-5.523,0-10-4.477-10-10l0,0c0-5.523,4.477-10,10-10h98
	C419.523,430,424,434.477,424,440L424,440z"/>
<linearGradient id="SVGID_25_" gradientUnits="userSpaceOnUse" x1="440" y1="450" x2="440" y2="429.5641">
	<stop  offset="0" style="stop-color:#FFFFED;stop-opacity:0.25"/>
	<stop  offset="1" style="stop-color:#FFFFFF;stop-opacity:0.5"/>
</linearGradient>
<path fill="url(#SVGID_25_)" d="M450,440c0,5.523-4.477,10-10,10l0,0c-5.523,0-10-4.477-10-10l0,0c0-5.523,4.477-10,10-10l0,0
	C445.523,430,450,434.477,450,440L450,440z"/>
<linearGradient id="SVGID_26_" gradientUnits="userSpaceOnUse" x1="295.6667" y1="186" x2="462.0965" y2="186">
	<stop  offset="0" style="stop-color:#0000A2;stop-opacity:0"/>
	<stop  offset="1" style="stop-color:#00009F;stop-opacity:0.07"/>
</linearGradient>
<path fill="url(#SVGID_26_)" d="M462,192H294v-6c0-3.314,2.686-6,6-6h156c3.314,0,6,2.686,6,6V192z"/>
<linearGradient id="SVGID_27_" gradientUnits="userSpaceOnUse" x1="314" y1="338.5" x2="314" y2="402.5">
	<stop  offset="0" style="stop-color:#FFFFFF"/>
	<stop  offset="0.4256" style="stop-color:#FCFCFC"/>
	<stop  offset="0.7668" style="stop-color:#F2F2F2"/>
	<stop  offset="1" style="stop-color:#E6E6E6"/>
</linearGradient>
<path fill="url(#SVGID_27_)" d="M392,398c0,2.209-1.791,4-4,4H240c-2.209,0-4-1.791-4-4v-56c0-2.209,1.791-4,4-4h148
	c2.209,0,4,1.791,4,4V398z"/>
<path fill="#B6B9B9" d="M346,355c0,1.657-1.343,3-3,3h-64c-1.657,0-3-1.343-3-3l0,0c0-1.657,1.343-3,3-3h64
	C344.657,352,346,353.343,346,355L346,355z"/>
<path fill="#B6B9B9" d="M316,369c0,1.657-1.343,3-3,3h-34c-1.657,0-3-1.343-3-3l0,0c0-1.657,1.343-3,3-3h34
	C314.657,366,316,367.343,316,369L316,369z"/>
<path fill="#B6B9B9" d="M340,383c0,1.657-1.343,3-3,3h-58c-1.657,0-3-1.343-3-3l0,0c0-1.657,1.343-3,3-3h58
	C338.657,380,340,381.343,340,383L340,383z"/>
<path fill="#B6B9B9" d="M376,383c0,1.657-1.343,3-3,3h-24c-1.657,0-3-1.343-3-3l0,0c0-1.657,1.343-3,3-3h24
	C374.657,380,376,381.343,376,383L376,383z"/>
<linearGradient id="SVGID_28_" gradientUnits="userSpaceOnUse" x1="364" y1="351" x2="364" y2="371.6989">
	<stop  offset="0" style="stop-color:#FF7E45"/>
	<stop  offset="0.1983" style="stop-color:#FE7A4B"/>
	<stop  offset="0.4578" style="stop-color:#FC6D5B"/>
	<stop  offset="0.7499" style="stop-color:#F85876"/>
	<stop  offset="1" style="stop-color:#F44293"/>
</linearGradient>
<path fill="url(#SVGID_28_)" d="M370,352c-3.314,0-6,2.686-6,6c0-3.314-2.686-6-6-6s-6,2.686-6,6c0,6.627,12,14,12,14
	s12-7.373,12-14C376,354.686,373.314,352,370,352z"/>
<path fill="#B6B9B9" d="M346,369c0,1.657-1.343,3-3,3h-18c-1.657,0-3-1.343-3-3l0,0c0-1.657,1.343-3,3-3h18
	C344.657,366,346,367.343,346,369L346,369z"/>
<linearGradient id="SVGID_29_" gradientUnits="userSpaceOnUse" x1="262" y1="333.5" x2="262" y2="354.8219">
	<stop  offset="0" style="stop-color:#F9CDAF"/>
	<stop  offset="0.5359" style="stop-color:#F8CAAB"/>
	<stop  offset="1" style="stop-color:#F7C4A1"/>
</linearGradient>
<path fill="url(#SVGID_29_)" d="M262,334h-10v10c0,5.523,4.477,10,10,10s10-4.477,10-10S267.523,334,262,334z"/>
<linearGradient id="SVGID_30_" gradientUnits="userSpaceOnUse" x1="262" y1="336.75" x2="262" y2="350.6109">
	<stop  offset="0" style="stop-color:#EFBC9A"/>
	<stop  offset="0.7147" style="stop-color:#F3C09E"/>
	<stop  offset="1" style="stop-color:#F7C4A1"/>
</linearGradient>
<path fill="url(#SVGID_30_)" d="M262,338h-6v2v4c0,3.32,2.68,6,6,6c2.98,0,5.44-2.16,5.9-5c0.08-0.32,0.1-0.66,0.1-1
	C268,340.68,265.32,338,262,338z"/>
<linearGradient id="SVGID_31_" gradientUnits="userSpaceOnUse" x1="182" y1="333.5" x2="182" y2="354.8219">
	<stop  offset="0" style="stop-color:#F9CDAF"/>
	<stop  offset="0.5359" style="stop-color:#F8CAAB"/>
	<stop  offset="1" style="stop-color:#F7C4A1"/>
</linearGradient>
<path fill="url(#SVGID_31_)" d="M182,334h10v10c0,5.523-4.477,10-10,10s-10-4.477-10-10S176.477,334,182,334z"/>
<linearGradient id="SVGID_32_" gradientUnits="userSpaceOnUse" x1="182" y1="336.75" x2="182" y2="350.6109">
	<stop  offset="0" style="stop-color:#EFBC9A"/>
	<stop  offset="0.7147" style="stop-color:#F3C09E"/>
	<stop  offset="1" style="stop-color:#F7C4A1"/>
</linearGradient>
<path fill="url(#SVGID_32_)" d="M182,338c-3.32,0-6,2.68-6,6c0,0.34,0.02,0.68,0.1,1c0.46,2.84,2.92,5,5.9,5c3.32,0,6-2.68,6-6v-4
	v-2H182z"/>
<linearGradient id="SVGID_33_" gradientUnits="userSpaceOnUse" x1="186" y1="342.5" x2="258" y2="342.5">
	<stop  offset="0" style="stop-color:#FFDEC7"/>
	<stop  offset="1" style="stop-color:#FFD8BD"/>
</linearGradient>
<path fill="url(#SVGID_33_)" d="M222,380L222,380c-19.882,0-36-16.118-36-36v-24c0-20,72-20,72,0v24
	C258,363.882,241.882,380,222,380z"/>
<circle fill="#FFFFFF" cx="238" cy="340" r="7"/>
<circle fill="#FFFFFF" cx="206" cy="340" r="7"/>
<linearGradient id="SVGID_34_" gradientUnits="userSpaceOnUse" x1="238" y1="326.125" x2="238" y2="330.25">
	<stop  offset="0" style="stop-color:#FFC41D"/>
	<stop  offset="1" style="stop-color:#FF970D"/>
</linearGradient>
<path fill="url(#SVGID_34_)" d="M242,326h-8c-1.105,0-2,0.895-2,2l0,0c0,1.105,0.895,2,2,2h8c1.105,0,2-0.895,2-2l0,0
	C244,326.895,243.105,326,242,326z"/>
<linearGradient id="SVGID_35_" gradientUnits="userSpaceOnUse" x1="206" y1="325.75" x2="206" y2="330.1268">
	<stop  offset="0" style="stop-color:#FFC41D"/>
	<stop  offset="1" style="stop-color:#FF970D"/>
</linearGradient>
<path fill="url(#SVGID_35_)" d="M210,326h-8c-1.105,0-2,0.895-2,2l0,0c0,1.105,0.895,2,2,2h8c1.105,0,2-0.895,2-2l0,0
	C212,326.895,211.105,326,210,326z"/>
<linearGradient id="SVGID_36_" gradientUnits="userSpaceOnUse" x1="222" y1="341.75" x2="222" y2="352.2567">
	<stop  offset="0" style="stop-color:#FFD3BB"/>
	<stop  offset="1" style="stop-color:#FFC4B0"/>
</linearGradient>
<path fill="url(#SVGID_36_)" d="M222,352L222,352c-2.209,0-4-1.791-4-4v-2c0-2.209,1.791-4,4-4l0,0c2.209,0,4,1.791,4,4v2
	C226,350.209,224.209,352,222,352z"/>
<path opacity="0.05" d="M268,344c0,0.34-0.02,0.68-0.1,1c-0.46-2.84-2.92-5-5.9-5h-4v-2h4C265.32,338,268,340.68,268,344z"/>
<linearGradient id="SVGID_37_" gradientUnits="userSpaceOnUse" x1="206" y1="336.5" x2="206" y2="343.7511">
	<stop  offset="0" style="stop-color:#4C4B4B"/>
	<stop  offset="1" style="stop-color:#3A3838"/>
</linearGradient>
<path fill="url(#SVGID_37_)" d="M209,340c0,1.66-1.34,3-3,3s-3-1.34-3-3c0-1.66,1.34-3,3-3c0.08,0,0.18,0,0.26,0.02
	c-0.16,0.28-0.26,0.62-0.26,0.98c0,1.1,0.9,2,2,2c0.36,0,0.7-0.1,0.98-0.26C209,339.82,209,339.92,209,340z"/>
<path opacity="0.05" d="M176,344c0,0.34,0.02,0.68,0.1,1c0.46-2.84,2.92-5,5.9-5h4v-2h-4C178.68,338,176,340.68,176,344z"/>
<linearGradient id="SVGID_38_" gradientUnits="userSpaceOnUse" x1="238" y1="336.5" x2="238" y2="343.7511">
	<stop  offset="0" style="stop-color:#4C4B4B"/>
	<stop  offset="1" style="stop-color:#3A3838"/>
</linearGradient>
<path fill="url(#SVGID_38_)" d="M241,340c0,1.66-1.34,3-3,3s-3-1.34-3-3c0-1.66,1.34-3,3-3c0.08,0,0.18,0,0.26,0.02
	c-0.16,0.28-0.26,0.62-0.26,0.98c0,1.1,0.9,2,2,2c0.36,0,0.7-0.1,0.98-0.26C241,339.82,241,339.92,241,340z"/>
<linearGradient id="SVGID_39_" gradientUnits="userSpaceOnUse" x1="222" y1="357.7143" x2="222" y2="369.8605">
	<stop  offset="0" style="stop-color:#F9808F"/>
	<stop  offset="0.391" style="stop-color:#F97792"/>
	<stop  offset="1" style="stop-color:#F96099"/>
</linearGradient>
<path fill="url(#SVGID_39_)" d="M234,358c0,3.8-1.78,7.2-4.54,9.4c-2.04,1.64-4.64,2.6-7.46,2.6s-5.42-0.96-7.46-2.6
	c-2.76-2.2-4.54-5.6-4.54-9.4H234z"/>
<rect x="210" y="356" fill="#FFFFFF" width="24" height="2"/>
<linearGradient id="SVGID_40_" gradientUnits="userSpaceOnUse" x1="222" y1="363.4167" x2="222" y2="370.3654">
	<stop  offset="0" style="stop-color:#EA5770"/>
	<stop  offset="0.5523" style="stop-color:#EA4F79"/>
	<stop  offset="1" style="stop-color:#EA4684"/>
</linearGradient>
<path fill="url(#SVGID_40_)" d="M229.46,367.4c-2.04,1.64-4.64,2.6-7.46,2.6s-5.42-0.96-7.46-2.6c1.14-2.46,4.06-3.4,7.46-3.4
	S228.32,364.94,229.46,367.4z"/>
<linearGradient id="SVGID_41_" gradientUnits="userSpaceOnUse" x1="222" y1="276.6667" x2="222" y2="351.3393">
	<stop  offset="0" style="stop-color:#FFC41D"/>
	<stop  offset="0.3042" style="stop-color:#FFBB1A"/>
	<stop  offset="0.7987" style="stop-color:#FFA311"/>
	<stop  offset="1" style="stop-color:#FF970D"/>
</linearGradient>
<path fill="url(#SVGID_41_)" d="M236,278h-10c-3.328,0-6.024,2.71-6,6.044c0.008,1.088-0.912,1.956-2,1.956h-14
	c-12.15,0-22,9.85-22,22v6v20h2c1.105,0,2,0.895,2,2v12h2c2.209,0,4-1.791,4-4v-22c0-2.209,1.791-4,4-4h52c2.209,0,4,1.791,4,4v22
	c0,2.209,1.791,4,4,4h2v-12c0-1.105,0.895-2,2-2h2v-20v-10C262,289.641,250.359,278,236,278z"/>
<linearGradient id="SVGID_42_" gradientUnits="userSpaceOnUse" x1="203.5119" y1="307" x2="203.5119" y2="288.2234">
	<stop  offset="0" style="stop-color:#FFFFED;stop-opacity:0"/>
	<stop  offset="1" style="stop-color:#FFFFFF;stop-opacity:0.15"/>
</linearGradient>
<path fill="url(#SVGID_42_)" d="M189.024,306c-0.222,0-0.446-0.037-0.667-0.115c-1.041-0.368-1.587-1.511-1.219-2.553
	C189.958,295.357,197.538,290,206,290h12c1.104,0,2,0.896,2,2s-0.896,2-2,2h-12c-6.771,0-12.835,4.286-15.09,10.666
	C190.62,305.486,189.849,306,189.024,306z"/>
<path opacity="0.15" d="M364,302v2c0,2.2,1.8,4,4,4h106v-2H368C365.8,306,364,304.2,364,302z"/>
<path opacity="0.15" d="M392,398v2c0,2.2-1.8,4-4,4H282v-2h106C390.2,402,392,400.2,392,398z"/>
<linearGradient id="SVGID_43_" gradientUnits="userSpaceOnUse" x1="434.0043" y1="241.3333" x2="434.0043" y2="306.0034" gradientTransform="matrix(-1 0 0 1 876.0043 0)">
	<stop  offset="0" style="stop-color:#FFFFFF"/>
	<stop  offset="0.4256" style="stop-color:#FCFCFC"/>
	<stop  offset="0.7668" style="stop-color:#F2F2F2"/>
	<stop  offset="1" style="stop-color:#E6E6E6"/>
</linearGradient>
<path fill="url(#SVGID_43_)" d="M520,246c0-2.209-1.791-4-4-4H368c-2.209,0-4,1.791-4,4v56.05c0,2.182,1.768,3.95,3.95,3.95H516
	c2.209,0,4-1.791,4-4V246z"/>
<path fill="#B6B9B9" d="M480,261c0-1.657-1.343-3-3-3h-68c-1.657,0-3,1.343-3,3l0,0c0,1.657,1.343,3,3,3h68
	C478.657,264,480,262.657,480,261L480,261z"/>
<path fill="#B6B9B9" d="M480,275c0-1.657-1.343-3-3-3h-34c-1.657,0-3,1.343-3,3l0,0c0,1.657,1.343,3,3,3h34
	C478.657,278,480,276.657,480,275L480,275z"/>
<path fill="#B6B9B9" d="M480,289c0-1.657-1.343-3-3-3h-58c-1.657,0-3,1.343-3,3l0,0c0,1.657,1.343,3,3,3h58
	C478.657,292,480,290.657,480,289L480,289z"/>
<path fill="#B6B9B9" d="M410,289c0-1.657-1.343-3-3-3h-24c-1.657,0-3,1.343-3,3l0,0c0,1.657,1.343,3,3,3h24
	C408.657,292,410,290.657,410,289L410,289z"/>
<path fill="#B6B9B9" d="M434,275c0-1.657-1.343-3-3-3h-22c-1.657,0-3,1.343-3,3l0,0c0,1.657,1.343,3,3,3h22
	C432.657,278,434,276.657,434,275L434,275z"/>
<linearGradient id="SVGID_44_" gradientUnits="userSpaceOnUse" x1="390" y1="258.0893" x2="390" y2="278.0008">
	<stop  offset="0" style="stop-color:#FFC41D"/>
	<stop  offset="0.294" style="stop-color:#FFC01C"/>
	<stop  offset="0.5985" style="stop-color:#FFB317"/>
	<stop  offset="0.9069" style="stop-color:#FF9F10"/>
	<stop  offset="1" style="stop-color:#FF970D"/>
</linearGradient>
<circle fill="url(#SVGID_44_)" cx="390" cy="268" r="10"/>
<path fill="#FFFFFF" d="M396,268c0,3.314-2.686,6-6,6s-6-2.686-6-6H396z"/>
<linearGradient id="SVGID_45_" gradientUnits="userSpaceOnUse" x1="536" y1="266" x2="536" y2="242.2966">
	<stop  offset="0" style="stop-color:#0079D3"/>
	<stop  offset="0.222" style="stop-color:#0070D4"/>
	<stop  offset="0.584" style="stop-color:#0058D5"/>
	<stop  offset="1" style="stop-color:#0034D8"/>
</linearGradient>
<path fill="url(#SVGID_45_)" d="M574,266h-76c-3.314,0-6-2.686-6-6v-12c0-3.314,2.686-6,6-6h76c3.314,0,6,2.686,6,6v12
	C580,263.314,577.314,266,574,266z"/>
<linearGradient id="SVGID_46_" gradientUnits="userSpaceOnUse" x1="536" y1="282" x2="536" y2="224.7168">
	<stop  offset="0" style="stop-color:#55C2FF"/>
	<stop  offset="0.1665" style="stop-color:#5EC7FF"/>
	<stop  offset="0.4381" style="stop-color:#76D4FF"/>
	<stop  offset="0.7789" style="stop-color:#9EEAFF"/>
	<stop  offset="1" style="stop-color:#BBFAFF"/>
</linearGradient>
<path fill="url(#SVGID_46_)" d="M566,282h-60c-4.418,0-8-3.582-8-8v-42c0-4.418,3.582-8,8-8h60c4.418,0,8,3.582,8,8v42
	C574,278.418,570.418,282,566,282z"/>
<linearGradient id="SVGID_47_" gradientUnits="userSpaceOnUse" x1="536" y1="220.3" x2="536" y2="207.1939">
	<stop  offset="0" style="stop-color:#E6E6E6"/>
	<stop  offset="0.4062" style="stop-color:#E2E2E2"/>
	<stop  offset="0.8264" style="stop-color:#D5D5D5"/>
	<stop  offset="1" style="stop-color:#CECECE"/>
</linearGradient>
<rect x="534" y="208" fill="url(#SVGID_47_)" width="4" height="12"/>
<linearGradient id="SVGID_48_" gradientUnits="userSpaceOnUse" x1="530" y1="204" x2="542" y2="204">
	<stop  offset="0" style="stop-color:#FF7E45"/>
	<stop  offset="0.1983" style="stop-color:#FE7A4B"/>
	<stop  offset="0.4578" style="stop-color:#FC6D5B"/>
	<stop  offset="0.7499" style="stop-color:#F85876"/>
	<stop  offset="1" style="stop-color:#F44293"/>
</linearGradient>
<circle fill="url(#SVGID_48_)" cx="536" cy="204" r="6"/>
<circle fill="#FFFFFF" cx="552" cy="254" r="7"/>
<linearGradient id="SVGID_49_" gradientUnits="userSpaceOnUse" x1="552" y1="250.4167" x2="552" y2="257.5005">
	<stop  offset="0" style="stop-color:#4C4B4B"/>
	<stop  offset="1" style="stop-color:#3A3838"/>
</linearGradient>
<path fill="url(#SVGID_49_)" d="M555,254c0,1.66-1.34,3-3,3s-3-1.34-3-3c0-1.66,1.34-3,3-3c0.08,0,0.18,0,0.26,0.02
	c-0.16,0.28-0.26,0.62-0.26,0.98c0,1.1,0.9,2,2,2c0.36,0,0.7-0.1,0.98-0.26C555,253.82,555,253.92,555,254z"/>
<circle fill="#FFFFFF" cx="520" cy="254" r="7"/>
<linearGradient id="SVGID_50_" gradientUnits="userSpaceOnUse" x1="520" y1="250.4167" x2="520" y2="257.5005">
	<stop  offset="0" style="stop-color:#4C4B4B"/>
	<stop  offset="1" style="stop-color:#3A3838"/>
</linearGradient>
<path fill="url(#SVGID_50_)" d="M523,254c0,1.66-1.34,3-3,3s-3-1.34-3-3c0-1.66,1.34-3,3-3c0.08,0,0.18,0,0.26,0.02
	c-0.16,0.28-0.26,0.62-0.26,0.98c0,1.1,0.9,2,2,2c0.36,0,0.7-0.1,0.98-0.26C523,253.82,523,253.92,523,254z"/>
<rect x="528" y="262" fill="#FFFFFF" width="16" height="2"/>
<linearGradient id="SVGID_51_" gradientUnits="userSpaceOnUse" x1="552" y1="239.5" x2="552" y2="244.375">
	<stop  offset="0" style="stop-color:#0079D3"/>
	<stop  offset="0.222" style="stop-color:#0070D4"/>
	<stop  offset="0.584" style="stop-color:#0058D5"/>
	<stop  offset="1" style="stop-color:#0034D8"/>
</linearGradient>
<path fill="url(#SVGID_51_)" d="M558,242c0,1.105-0.895,2-2,2h-8c-1.105,0-2-0.895-2-2l0,0c0-1.105,0.895-2,2-2h8
	C557.105,240,558,240.895,558,242L558,242z"/>
<linearGradient id="SVGID_52_" gradientUnits="userSpaceOnUse" x1="520" y1="239.5" x2="520" y2="244.375">
	<stop  offset="0" style="stop-color:#0079D3"/>
	<stop  offset="0.222" style="stop-color:#0070D4"/>
	<stop  offset="0.584" style="stop-color:#0058D5"/>
	<stop  offset="1" style="stop-color:#0034D8"/>
</linearGradient>
<path fill="url(#SVGID_52_)" d="M526,242c0,1.105-0.895,2-2,2h-8c-1.105,0-2-0.895-2-2l0,0c0-1.105,0.895-2,2-2h8
	C525.105,240,526,240.895,526,242L526,242z"/>
<linearGradient id="SVGID_53_" gradientUnits="userSpaceOnUse" x1="528" y1="268" x2="544" y2="268">
	<stop  offset="0" style="stop-color:#259CE5"/>
	<stop  offset="0.018" style="stop-color:#259BE4"/>
	<stop  offset="0.6261" style="stop-color:#2183D3"/>
	<stop  offset="1" style="stop-color:#1F7ACC"/>
</linearGradient>
<path fill="url(#SVGID_53_)" d="M544,264c0,2.32-0.98,4.4-2.56,5.86C540,271.18,538.1,272,536,272s-4-0.82-5.44-2.14
	c-1.58-1.46-2.56-3.54-2.56-5.86H544z"/>
<path opacity="0.2" d="M541.44,269.86C540,271.18,538.1,272,536,272s-4-0.82-5.44-2.14c0.94-1.5,3.02-1.86,5.44-1.86
	S540.5,268.36,541.44,269.86z"/>
<linearGradient id="SVGID_54_" gradientUnits="userSpaceOnUse" x1="510" y1="224" x2="562" y2="224">
	<stop  offset="0" style="stop-color:#FF7E45"/>
	<stop  offset="0.1983" style="stop-color:#FE7A4B"/>
	<stop  offset="0.4578" style="stop-color:#FC6D5B"/>
	<stop  offset="0.7499" style="stop-color:#F85876"/>
	<stop  offset="1" style="stop-color:#F44293"/>
</linearGradient>
<path fill="url(#SVGID_54_)" d="M557.251,218H514.75c-2.612,0-4.75,2.137-4.75,4.75V224h7.843c1.288,0,2.432,0.824,2.839,2.046
	l0.409,1.226c0.543,1.629,2.068,2.728,3.785,2.728h22.248c1.717,0,3.242-1.099,3.785-2.728l0.409-1.226
	c0.407-1.222,1.551-2.046,2.839-2.046H562v-1.251C562,220.137,559.863,218,557.251,218z"/>
<path opacity="0.15" d="M498,368v36c0,2.209,1.791,4,4,4h7.512c1.525,0,2.919,0.862,3.601,2.225l3.993,7.986
	c0.548,1.096,1.669,1.789,2.894,1.789l0,0c1.226,0,2.346-0.693,2.894-1.789l3.993-7.986c0.682-1.364,2.076-2.225,3.601-2.225H538
	c2.209,0,4-1.791,4-4v-36c0-2.209-1.791-4-4-4h-36C499.791,364,498,365.791,498,368z"/>
<linearGradient id="SVGID_55_" gradientUnits="userSpaceOnUse" x1="520" y1="361.3778" x2="520" y2="417.3778">
	<stop  offset="0" style="stop-color:#FF7E45"/>
	<stop  offset="0.1983" style="stop-color:#FE7A4B"/>
	<stop  offset="0.4578" style="stop-color:#FC6D5B"/>
	<stop  offset="0.7499" style="stop-color:#F85876"/>
	<stop  offset="1" style="stop-color:#F44293"/>
</linearGradient>
<path fill="url(#SVGID_55_)" d="M498,366v36c0,2.209,1.791,4,4,4h7.512c1.525,0,2.919,0.862,3.601,2.225l3.993,7.986
	c0.548,1.096,1.669,1.789,2.894,1.789l0,0c1.226,0,2.346-0.693,2.894-1.789l3.993-7.986c0.682-1.364,2.076-2.225,3.601-2.225H538
	c2.209,0,4-1.791,4-4v-36c0-2.209-1.791-4-4-4h-36C499.791,362,498,363.791,498,366z"/>
<path fill="#FFFFFF" d="M524,370h-8c-3.309,0-6,2.691-6,6v22h4v-10h12v10h4v-22C530,372.691,527.309,370,524,370z M526,384h-12v-8
	c0-1.104,0.896-2,2-2h8c1.104,0,2,0.896,2,2V384z"/>
<path fill="#E8E8E8" d="M521.191,330.427l1.215,3.921c0.184,0.595,0.65,1.061,1.245,1.245l3.921,1.215
	c0.35,0.108,0.35,0.604,0,0.713l-3.921,1.215c-0.595,0.184-1.061,0.65-1.245,1.245l-1.215,3.921c-0.108,0.35-0.604,0.35-0.713,0
	l-1.215-3.921c-0.184-0.595-0.65-1.061-1.245-1.245l-3.921-1.215c-0.35-0.108-0.35-0.604,0-0.713l3.921-1.215
	c0.595-0.184,1.061-0.65,1.245-1.245l1.215-3.921C520.587,330.077,521.083,330.077,521.191,330.427z"/>
<linearGradient id="SVGID_56_" gradientUnits="userSpaceOnUse" x1="321" y1="239" x2="321" y2="309.1142">
	<stop  offset="0" style="stop-color:#FFFFED;stop-opacity:0.15"/>
	<stop  offset="1" style="stop-color:#FFFFFF;stop-opacity:0.3"/>
</linearGradient>
<path fill="url(#SVGID_56_)" d="M344,306h-50v-64h50c2.209,0,4,1.791,4,4v56C348,304.209,346.209,306,344,306z"/>
<linearGradient id="SVGID_57_" gradientUnits="userSpaceOnUse" x1="394" y1="335" x2="394" y2="405.1142" gradientTransform="matrix(-1 0 0 1 829 0)">
	<stop  offset="0" style="stop-color:#FFFFED;stop-opacity:0.15"/>
	<stop  offset="1" style="stop-color:#FFFFFF;stop-opacity:0.3"/>
</linearGradient>
<path fill="url(#SVGID_57_)" d="M412,402h50v-64h-50c-2.209,0-4,1.791-4,4v56C408,400.209,409.791,402,412,402z"/>
</svg>
