<?xml version="1.0" encoding="UTF-8"?><svg version="1.1" xmlns="http://www.w3.org/2000/svg" xmlns:xlink="http://www.w3.org/1999/xlink" viewBox="0 0 1500 1500" width="1500" height="1500" x="0px" y="0px">
              
              <!-- ITEM 0 -->
<g>
    <defs>
        <clipPath id="clip-path-id-crop-item-0">
          <g transform="scale(0.7592972972972973 0.7574022988505748)">
          <rect x="0.0" y="0.0" width="134.0" height="79.0"/>
          </g>
        </clipPath>
        <clipPath id="clip-path-id-viewbox-item-0">
            <rect x="0.0" y="0.0" width="112.376" height="65.894"/>
        </clipPath>
    </defs>
    <g clip-path="url(#clip-path-id-crop-item-0)" transform="translate(478.0 231.0) rotate(30.452662128061725 74.0 43.5) scale(1.3170071901473623 1.3203023036998816)">
        <g clip-path="url(#clip-path-id-viewbox-item-0)" transform="translate(-0.0 -0.0)">
<title>decoration_9</title><g id="Layer_2-i0" data-name="Layer 2"><g id="decoration_9-i0"><path d="M.638,63.118c8.6-6.1,17.5-11.9,26.5-17.5,4.5-2.8,9-5.5,13.5-8.3s9.1-5.4,13.7-8c4.5-2.6,9.2-5.2,13.8-7.7s9.3-5.1,14-7.5c9.4-4.9,18.9-9.6,28.5-14a1.174,1.174,0,0,1,1.6.6,1.165,1.165,0,0,1-.5,1.6h0c-9,5.5-18.1,10.8-27.2,16.2l-27.3,15.9-27.4,15.8c-9.1,5.2-18.3,10.4-27.6,15.5h0a1.528,1.528,0,0,1-2.1-.7,1.569,1.569,0,0,1,.5-1.9Z" fill="#04294f"/></g></g>
        </g>
    </g>
</g>

<!-- ITEM 1 -->
<g>
    <defs>
        <clipPath id="clip-path-id-crop-item-1">
          <g transform="scale(0.8324148148148148 0.8341012658227849)">
          <rect x="0.0" y="0.0" width="123.0" height="72.0"/>
          </g>
        </clipPath>
        <clipPath id="clip-path-id-viewbox-item-1">
            <rect x="0.0" y="0.0" width="112.376" height="65.894"/>
        </clipPath>
    </defs>
    <g clip-path="url(#clip-path-id-crop-item-1)" transform="translate(693.0 232.0) rotate(29.538782259558108 67.5 39.5) scale(1.201324126147932 1.1988951953136855)">
        <g clip-path="url(#clip-path-id-viewbox-item-1)" transform="translate(-0.0 -0.0)">
<title>decoration_9</title><g id="Layer_2-i1" data-name="Layer 2"><g id="decoration_9-i1"><path d="M.638,63.118c8.6-6.1,17.5-11.9,26.5-17.5,4.5-2.8,9-5.5,13.5-8.3s9.1-5.4,13.7-8c4.5-2.6,9.2-5.2,13.8-7.7s9.3-5.1,14-7.5c9.4-4.9,18.9-9.6,28.5-14a1.174,1.174,0,0,1,1.6.6,1.165,1.165,0,0,1-.5,1.6h0c-9,5.5-18.1,10.8-27.2,16.2l-27.3,15.9-27.4,15.8c-9.1,5.2-18.3,10.4-27.6,15.5h0a1.528,1.528,0,0,1-2.1-.7,1.569,1.569,0,0,1,.5-1.9Z" fill="#04294f"/></g></g>
        </g>
    </g>
</g>

<!-- ITEM 2 -->
<g>
    <defs>
        <clipPath id="clip-path-id-crop-item-2">
          <g transform="scale(0.8513333333333334 0.8447948717948719)">
          <rect x="0.0" y="0.0" width="120.0" height="71.0"/>
          </g>
        </clipPath>
        <clipPath id="clip-path-id-viewbox-item-2">
            <rect x="0.0" y="0.0" width="112.376" height="65.894"/>
        </clipPath>
    </defs>
    <g clip-path="url(#clip-path-id-crop-item-2)" transform="translate(951.0 231.0) rotate(31.51441633438458 66.0 39.0) scale(1.1746280344557556 1.183719306765411)">
        <g clip-path="url(#clip-path-id-viewbox-item-2)" transform="translate(-0.0 -0.0)">
<title>decoration_9</title><g id="Layer_2-i2" data-name="Layer 2"><g id="decoration_9-i2"><path d="M.638,63.118c8.6-6.1,17.5-11.9,26.5-17.5,4.5-2.8,9-5.5,13.5-8.3s9.1-5.4,13.7-8c4.5-2.6,9.2-5.2,13.8-7.7s9.3-5.1,14-7.5c9.4-4.9,18.9-9.6,28.5-14a1.174,1.174,0,0,1,1.6.6,1.165,1.165,0,0,1-.5,1.6h0c-9,5.5-18.1,10.8-27.2,16.2l-27.3,15.9-27.4,15.8c-9.1,5.2-18.3,10.4-27.6,15.5h0a1.528,1.528,0,0,1-2.1-.7,1.569,1.569,0,0,1,.5-1.9Z" fill="#04294f"/></g></g>
        </g>
    </g>
</g>

<!-- ITEM 3 -->
<g>
    <defs>
        
        <clipPath id="clip-path-id-viewbox-item-3">
            <rect x="0.0" y="0.0" width="296.312" height="417.5"/>
        </clipPath>
    </defs>
    <g transform="translate(826.0 371.0) rotate(0.0 320.5 450.0) scale(2.1632603472015983 2.155688622754491)">
        <g clip-path="url(#clip-path-id-viewbox-item-3)" transform="translate(-0.0 -0.0)">
<title>form_document</title><g id="Layer_2-i3" data-name="Layer 2"><g id="form_document-i3"><path d="M196.8,135.618l42.6,19.5s7.5-19.869-10.431-30.333S196.8,135.618,196.8,135.618Z" fill="#10294c"/><path d="M227.107,127.2h0c-7.6-3.2-17.1-1.6-23.8,4.1a24.958,24.958,0,0,0-3.2,3.3l37.5,17.3C239.607,140,235.807,130.9,227.107,127.2Z" fill="none"/><path d="M229.007,122.6h0L71.707,50.1c-.1,0-.2-.1-.3-.1-9.4-3-20.3-.4-27.8,6.6-5.5,5.2-13.9,17.3-8.3,39.9.4,3.2,5.7,52.9,5.7,106.1,0,54.6-5.6,93.9-5.7,94.3-4,26.1-31.9,28.6-33.1,28.7a2.443,2.443,0,0,0-2.2,2.6,2.471,2.471,0,0,0,1.4,2l146.9,68a3.553,3.553,0,0,0,1,.2,1.268,1.268,0,0,0,.6-.1c1.1-.3,26.3-7.3,37.5-23.2,11.6-16.3,18.2-37.2,18.2-95.7,0-75.8-9.7-110.2-10.3-112.2-3.3-13.5-1.3-22.7,1.9-28.7l41,18.9a1.8,1.8,0,0,0,1,.2,2.459,2.459,0,0,0,2.2-1.4,2.959,2.959,0,0,0,.2-1C245.407,139.9,240.707,127.7,229.007,122.6Zm-79.5,270.8L10.207,329c10-2.8,26.7-10.5,29.9-31.4.1-.4,5.7-40,5.7-95s-5.7-106.3-5.7-106.8a.367.367,0,0,0-.1-.3c-3.8-15.1-1.3-27.6,6.9-35.3a23.636,23.636,0,0,1,22.8-5.6l143.9,66.3a28.254,28.254,0,0,0-13.6,6.5c-10.3,8.7-13.7,23.7-9.4,41v.1c.1.3,10.1,35.2,10.1,110.9,0,57.2-6.4,77.3-17.3,92.9C174.307,385.3,153.907,392.1,149.507,393.4Zm53.8-262.2c6.7-5.7,16.2-7.3,23.7-4.1h.1c8.7,3.8,12.5,12.9,10.4,24.6l-37.5-17.3A24.958,24.958,0,0,1,203.307,131.2Z" fill="#00acdc"/><polygon points="67.307 180.7 170.007 228.7 170.007 212 67.307 164 67.307 180.7" fill="#10294c"/><path d="M200.807,279.5c0-75.8-10-110.6-10.1-110.9v-.1c-4.3-17.4-.9-32.3,9.4-41a29.021,29.021,0,0,1,13.6-6.4L69.807,54.7a23.636,23.636,0,0,0-22.8,5.6c-8.2,7.7-10.7,20.2-6.9,35.3a.367.367,0,0,0,.1.3c.1.5,5.7,51.9,5.7,106.8s-5.7,94.6-5.7,95c-3.2,20.8-19.9,28.6-30,31.4l139.3,64.3c4.4-1.3,24.8-8.1,34-21.1C194.507,356.8,200.807,336.7,200.807,279.5Zm-60.1,75.3a2.609,2.609,0,0,1-1.1,2.1,2.836,2.836,0,0,1-1.3.4,4.253,4.253,0,0,1-1.1-.2l-44-21.2a2.58,2.58,0,0,1-1.4-2.2V303.2a2.433,2.433,0,0,1,2.4-2.4,4.253,4.253,0,0,1,1.1.2l44,21.2a2.58,2.58,0,0,1,1.4,2.2Zm34.2-40.8a2.433,2.433,0,0,1-2.4,2.4,2.959,2.959,0,0,1-1-.2l-107.7-50.3a2.4,2.4,0,0,1-1.4-2.2V241.6a2.433,2.433,0,0,1,2.4-2.4,2.959,2.959,0,0,1,1,.2l107.7,50.3a2.4,2.4,0,0,1,1.4,2.2Zm0-40.3a2.609,2.609,0,0,1-1.1,2.1,2.2,2.2,0,0,1-1.3.4,2.959,2.959,0,0,1-1-.2l-107.7-50.3a2.4,2.4,0,0,1-1.4-2.2V201.4a2.433,2.433,0,0,1,2.4-2.4,2.959,2.959,0,0,1,1,.2l107.7,50.2a2.4,2.4,0,0,1,1.4,2.2Zm0-41.1a2.433,2.433,0,0,1-2.4,2.4,2.959,2.959,0,0,1-1-.2l-107.7-50.2a2.4,2.4,0,0,1-1.4-2.2V160.2a2.433,2.433,0,0,1,2.4-2.4,2.959,2.959,0,0,1,1,.2l107.7,50.3a2.4,2.4,0,0,1,1.4,2.2Z" fill="#10294c"/><polygon points="67.307 221.9 170.007 269.9 170.007 253.2 67.307 205.2 67.307 221.9" fill="#10294c"/><polygon points="67.307 262.2 170.007 310.2 170.007 293.5 67.307 245.5 67.307 262.2" fill="#10294c"/><path d="M173.507,208.3,65.807,158a2.378,2.378,0,0,0-3.2,1.2,1.8,1.8,0,0,0-.2,1v22.1a2.4,2.4,0,0,0,1.4,2.2l107.7,50.3a3.553,3.553,0,0,0,1,.2,2.433,2.433,0,0,0,2.4-2.4V210.5A2.3,2.3,0,0,0,173.507,208.3Zm-3.5,20.4-102.8-48V164l102.8,48Z" fill="#00acdc"/><path d="M173.507,249.4l-107.7-50.3a2.378,2.378,0,0,0-3.2,1.2,1.8,1.8,0,0,0-.2,1v22.1a2.4,2.4,0,0,0,1.4,2.2l107.7,50.3a1.8,1.8,0,0,0,1,.2,2.01,2.01,0,0,0,1.3-.4,2.476,2.476,0,0,0,1.1-2.1V251.5A2.26,2.26,0,0,0,173.507,249.4Zm-3.5,20.5-102.8-48V205.2l102.8,48Z" fill="#00acdc"/><path d="M173.507,289.7l-107.7-50.3a2.378,2.378,0,0,0-3.2,1.2,1.8,1.8,0,0,0-.2,1v22.1a2.4,2.4,0,0,0,1.4,2.2l107.6,50.3a2.378,2.378,0,0,0,3.2-1.2,1.8,1.8,0,0,0,.2-1V291.9A2.16,2.16,0,0,0,173.507,289.7Zm-3.5,20.5-102.8-48V245.5l102.8,48Z" fill="#00acdc"/><path d="M139.307,322.2l-44-21.2a2.482,2.482,0,0,0-3.3,1.1,1.978,1.978,0,0,0-.2,1.1v30.4a2.4,2.4,0,0,0,1.4,2.2l44,21.2a1.978,1.978,0,0,0,1.1.2,2.01,2.01,0,0,0,1.3-.4,2.356,2.356,0,0,0,1.1-2.1V324.2A2.624,2.624,0,0,0,139.307,322.2Z" fill="#00acdc"/><path d="M130.107,344.3a4.253,4.253,0,0,1-1.1-.2l-27.7-13.3a2.58,2.58,0,0,1-1.4-2.2V316.2a2.433,2.433,0,0,1,2.4-2.4,4.253,4.253,0,0,1,1.1.2l27.7,13.3a2.58,2.58,0,0,1,1.4,2.2v12.4a2.609,2.609,0,0,1-1.1,2.1A3.079,3.079,0,0,1,130.107,344.3Zm-25.3-17.3,22.8,11v-6.9l-22.8-11Z" fill="#10294c"/><polygon points="126.707 197.6 75.007 173.5 75.007 178.9 126.707 203 126.707 197.6" fill="#ffb400"/><polygon points="133.207 200.6 133.207 206 161.807 219.4 161.807 214 133.207 200.6" fill="#ffb400"/><polygon points="93.007 228.3 93.007 222.9 75.007 214.6 75.007 220 93.007 228.3" fill="#ffb400"/><polygon points="126.707 238.7 99.507 226 99.507 231.4 126.707 244.1 126.707 238.7" fill="#ffb400"/><polygon points="133.207 241.7 133.207 247.1 141.107 250.8 141.107 245.4 133.207 241.7" fill="#ffb400"/><ellipse cx="118.607" cy="130.8" rx="18.5" ry="28.9" fill="#10294c"/><path d="M118.607,164.6c12.9,0,23.4-15.2,23.4-33.8s-10.5-33.8-23.4-33.8-23.4,15.2-23.4,33.8S105.807,164.6,118.607,164.6Zm0-62.7c10.2,0,18.5,13,18.5,28.9s-8.3,28.9-18.5,28.9-18.5-13-18.5-28.9S108.507,101.9,118.607,101.9Z" fill="#00acdc"/><ellipse cx="118.607" cy="130.8" rx="9.7" ry="14.6" fill="#ffb400"/><path d="M110.407,1.1a2.57,2.57,0,0,0-1.7-1.1h-.1c-1.3.1-2.7,2.6-2.6,5.7.2,3.1,1.8,5.4,3.2,5.4,1.3,0,2.7-2.6,2.6-5.7A7.6,7.6,0,0,0,110.407,1.1Z" fill="none"/><path d="M293.607,119.5c1.3-.1,2.7-2.6,2.6-5.7-.2-3.1-1.8-5.4-3.1-5.4h-.1c-.8,0-1.4,1-1.6,1.3a7.962,7.962,0,0,0-.9,4.3C290.607,117.2,292.307,119.6,293.607,119.5Z" fill="none"/><path d="M293.107,406.5h0c-.9,0-1.5,1-1.7,1.3a7.962,7.962,0,0,0-.9,4.3c.2,3.1,1.8,5.4,3.1,5.4h.1c1.3-.1,2.7-2.6,2.6-5.7C296.007,408.8,294.407,406.5,293.107,406.5Z" fill="none"/></g></g>
        </g>
    </g>
</g>

<!-- ITEM 4 -->
<g>
    <defs>
        
        <clipPath id="clip-path-id-viewbox-item-4">
            <rect x="0.0" y="0.0" width="112.681" height="163.205"/>
        </clipPath>
    </defs>
    <g transform="translate(698.0 588.0) rotate(29.671044303463596 -212.5 306.5) scale(-3.7717095162449747 3.7560123770717806)">
        <g clip-path="url(#clip-path-id-viewbox-item-4)" transform="translate(-0.0 -0.0)">

<g>
	<path fill="#E7421E" d="M16.71,94.133c0.439-3.996,1.259-7.94,2.45-11.78l1-2.91c0.35-1,0.77-1.93,1.16-2.89s0.9-1.89,1.36-2.83   c0.24-0.47,0.46-1,0.71-1.41l0.79-1.38c8.819-15.493,25.109-25.233,42.93-25.67c8.614-0.268,17.146,1.735,24.74,5.81   c4.286,2.516,5.721,8.031,3.205,12.318c-2.024,3.447-6.078,5.146-9.955,4.172l-0.48-0.14c-5.288-1.536-10.821-2.042-16.3-1.49   c-5.275,0.594-10.36,2.317-14.91,5.05c-4.542,2.832-8.445,6.578-11.46,11l-0.6,0.85c-0.19,0.29-0.37,0.6-0.55,0.9   c-0.37,0.6-0.77,1.18-1.09,1.82s-0.72,1.24-1,1.88l-1,2c-1.27,2.66-2.33,5.48-3.42,8.4l-0.15,0.41   c-1.724,4.662-6.901,7.043-11.563,5.319c-3.865-1.43-6.265-5.302-5.827-9.399L16.71,94.133z"/>
	<path fill="#E7421E" d="M24.83,105.353c0.435-3.999,1.253-7.947,2.44-11.79l1-2.91c0.36-1,0.78-1.92,1.17-2.88s0.89-1.9,1.35-2.84   c0.24-0.47,0.46-0.94,0.72-1.4l0.79-1.38c8.808-15.49,25.086-25.235,42.9-25.68c8.616-0.259,17.149,1.744,24.75,5.81   c4.296,2.5,5.753,8.009,3.253,12.305c-2.023,3.476-6.106,5.189-10.003,4.195l-0.48-0.14c-5.288-1.534-10.821-2.04-16.3-1.49   c-5.282,0.588-10.375,2.31-14.93,5.05c-4.546,2.826-8.45,6.573-11.46,11l-0.6,0.85c-0.2,0.29-0.37,0.6-0.56,0.89   c-0.36,0.61-0.76,1.19-1.09,1.83s-0.72,1.23-1,1.88l-1,2c-1.27,2.65-2.33,5.48-3.41,8.39l-0.15,0.41   c-1.727,4.661-6.905,7.04-11.566,5.314c-3.858-1.429-6.256-5.292-5.824-9.384L24.83,105.353z"/>
	<path fill="#E7421E" d="M5.41,82.063c0.421-4.001,1.225-7.952,2.4-11.8l1-2.92c0.35-1,0.77-1.92,1.16-2.89s0.88-1.89,1.34-2.84   c0.24-0.47,0.46-0.94,0.71-1.4l0.78-1.39C21.55,43.3,37.789,33.492,55.6,32.973c8.613-0.3,17.154,1.666,24.77,5.7   c4.308,2.479,5.791,7.981,3.313,12.289c-2.008,3.489-6.088,5.221-9.992,4.241l-0.48-0.14c-5.296-1.512-10.833-1.994-16.31-1.42   c-5.276,0.612-10.359,2.355-14.9,5.11c-4.537,2.849-8.427,6.617-11.42,11.06l-0.6,0.85c-0.19,0.29-0.36,0.6-0.55,0.9   c-0.36,0.61-0.76,1.19-1.08,1.83s-0.72,1.24-1,1.88l-1,2c-1.26,2.66-2.31,5.49-3.38,8.41l-0.15,0.41   c-1.7,4.671-6.864,7.079-11.535,5.379c-3.876-1.411-6.297-5.276-5.875-9.379L5.41,82.063z"/>
	<path fill="#1A2C4C" d="M31.88,49.623c0,0-3.58,51.44,24.71,48.55s31.92-37.17,31.92-37.17s-20.09-30.25-38.82-23.6   S31.88,49.623,31.88,49.623z"/>
	<path fill="#FAB316" d="M22.64,4.563C10,9.763,5.41,21.683,5.41,21.683c0.208,0.602,0.55,1.149,1,1.6l78.13,80l17.13-17.89   L22.64,4.563z"/>
	<path fill="#E7421E" d="M77.491,158.666c14.381-4.038,25.431-9.489,24.693-12.072l-4.428-15.71   c-4.766-18.651-6.6-27.287,2.045-44.43l0.348-0.559c0.485-0.886,0.938-1.813,1.392-2.741V83.09c0.788-1.4,1.394-2.896,1.803-4.449   c0.074-0.2,0.158-0.401,0.232-0.612c1.93-5.962,2.34-12.312,1.191-18.472c-1.193-5.772-3.594-11.226-7.043-16.005   c-2.994-4.116-6.49-7.842-10.406-11.092c-3.56-2.985-7.342-5.695-11.313-8.108c-3.774-2.323-7.674-4.435-11.682-6.326   c-7.741-3.706-15.77-6.777-24.008-9.183c-3.858-1.144-7.912,1.055-9.057,4.913c-0.889,2.995,0.231,6.223,2.783,8.024l0.105,0.074   c3.342,2.372,6.737,4.608,10.037,6.906c1.666,1.132,3.307,2.27,4.924,3.416c1.624,1.139,3.247,2.267,4.818,3.437   c6.094,4.305,11.805,9.127,17.07,14.413c2.205,2.275,4.163,4.777,5.841,7.465c1.242,2.032,2.096,4.277,2.52,6.621   c0.233,1.998,0.031,4.023-0.59,5.936c-0.222,0.753-0.497,1.489-0.822,2.204c-7.117,15.446-32.411,28.615-38.874,5.356   c-0.2-0.865-0.401-1.719-0.612-2.583c0-0.084,0-0.179,0-0.274c-0.222-1.197-0.514-2.38-0.875-3.543   c0-0.211-0.095-0.422-0.148-0.622c-1.054-4.091-2.109-8.224-3.3-12.462c-1.216-4.452-2.742-8.814-4.565-13.053l-0.095-0.211   c-1.775-3.875-6.356-5.577-10.231-3.802c-1.903,0.872-3.371,2.48-4.066,4.455c-1.61,4.824-2.509,9.857-2.668,14.94   c-0.216,5.105,0.138,10.219,1.054,15.246c0.851,4.632,2.216,9.155,4.07,13.485c0.442,1.137,0.96,2.243,1.55,3.311l0.063,0.127   c0.601,1.191,1.255,2.351,1.94,3.5c10.944,19.548,15.372,24.25,21.973,50.071l4.091,15.815   C48.001,164.623,63.121,162.704,77.491,158.666z"/>
	<path fill="#1A2C4C" d="M50.94,88.993c-3.166-1.479-5.845-3.831-7.72-6.78c-0.459-0.759-0.86-1.551-1.2-2.37   c-0.34-0.81-0.61-1.71-0.86-2.49l-0.36-1.22c-0.06-0.19-0.13-0.43-0.18-0.64l-0.15-0.59c-0.2-0.77-0.42-1.54-0.67-2.29   s-0.46-1.66-0.68-2.47l-0.64-2.41c-0.42-1.6-0.76-3.23-1.11-4.86c-0.55-3.29-1.43-6.48-2-9.8c-0.036-0.201,0.099-0.393,0.3-0.429   c0.165-0.029,0.329,0.056,0.4,0.209c0.71,1.52,1.35,3.08,2,4.63s1.26,3.13,1.8,4.71s1,3.19,1.46,4.81l0.6,2.43   c0.2,0.81,0.39,1.65,0.56,2.38s0.41,1.7,0.56,2.55l0.09,0.64c0,0.2,0,0.37,0.09,0.59l0.21,1.21c0.098,0.784,0.279,1.555,0.54,2.3   c0.248,0.744,0.556,1.466,0.92,2.16c1.521,2.839,3.754,5.234,6.48,6.95c0.206,0.136,0.264,0.413,0.13,0.62   C51.385,89.018,51.144,89.086,50.94,88.993z"/>
	<path fill="#1A2C4C" d="M54.11,35.563c2.688,1.56,5.294,3.255,7.81,5.08c2.51,1.83,5,3.74,7.32,5.78   c2.42,2.024,4.634,4.281,6.61,6.74c0.996,1.259,1.889,2.597,2.67,4c0.19,0.35,0.37,0.7,0.55,1.07c0.194,0.382,0.345,0.785,0.45,1.2   c0.215,0.784,0.342,1.588,0.38,2.4c0.017,0.198-0.13,0.372-0.329,0.389c-0.007,0.001-0.014,0.001-0.021,0.001   c-0.136,0.01-0.267-0.055-0.34-0.17l0,0c-0.41-0.66-0.8-1.32-1.21-1.94c-0.21-0.31-0.4-0.56-0.62-0.84s-0.46-0.59-0.69-0.88   c-0.93-1.18-1.92-2.3-2.93-3.41c-2.05-2.19-4.17-4.31-6.44-6.35s-4.55-4.09-6.86-6.12s-4.61-4.07-6.87-6.18   c-0.177-0.175-0.178-0.46-0.004-0.636c0.001-0.001,0.002-0.002,0.004-0.004C53.718,35.543,53.927,35.491,54.11,35.563z"/>
	<path fill="#1A2C4C" d="M25.6,57.963c7,0.54,6.28-9.4,0.77-10C20.28,47.313,18.3,57.393,25.6,57.963z"/>
	<path fill="#1A2C4C" d="M49.61,19.913c1-5.24-8.81-6.2-9.79-2.12C38.74,22.293,48.54,25.343,49.61,19.913z"/>
	<path fill="#1A2C4C" d="M34.27,74.153c-1.07,0.29-2.13,0.45-3.16,0.64l-3,0.47c-1,0.16-2,0.33-3,0.45s-2,0.26-3.17,0.3l0,0   c-0.221,0.006-0.404-0.169-0.41-0.39c0,0,0,0,0,0c-0.008-0.089,0.017-0.178,0.07-0.25c0.739-0.939,1.702-1.678,2.8-2.15   c1.058-0.459,2.182-0.749,3.33-0.86c1.126-0.13,2.264-0.13,3.39,0c1.137,0.121,2.247,0.421,3.29,0.89   c0.234,0.099,0.343,0.37,0.243,0.603c-0.057,0.133-0.173,0.232-0.313,0.267L34.27,74.153z"/>
	<path fill="#1A2C4C" d="M31.85,80.733c-0.463,0.32-0.959,0.588-1.48,0.8c-0.459,0.186-0.93,0.34-1.41,0.46   c-0.453,0.126-0.92,0.196-1.39,0.21c-0.57,0.006-1.139-0.064-1.69-0.21h-0.05c-0.253-0.057-0.412-0.309-0.354-0.562   c0.001-0.006,0.003-0.012,0.004-0.018l0,0c0.197-0.664,0.617-1.24,1.19-1.63c0.516-0.338,1.1-0.559,1.71-0.65   c0.592-0.1,1.198-0.1,1.79,0c0.623,0.102,1.215,0.344,1.73,0.71c0.234,0.166,0.29,0.491,0.124,0.725   c-0.001,0.002-0.002,0.003-0.004,0.005c-0.029,0.049-0.07,0.091-0.12,0.12L31.85,80.733z"/>
	<path fill="#1A2C4C" d="M77.65,30.733c0.003,0.391-0.058,0.779-0.18,1.15c-0.083,0.277-0.207,0.541-0.37,0.78   c-0.143,0.222-0.343,0.402-0.58,0.52c-0.377,0.161-0.774,0.272-1.18,0.33h-0.08c-0.232,0.04-0.468-0.052-0.61-0.24   c-0.319-0.407-0.45-0.931-0.36-1.44c0.069-0.405,0.261-0.778,0.55-1.07c0.278-0.292,0.621-0.514,1-0.65   c0.417-0.16,0.871-0.202,1.31-0.12c0.305,0.04,0.533,0.302,0.53,0.61L77.65,30.733z"/>
	<path fill="#1A2C4C" d="M81.68,33.863c-0.392,0.75-0.84,1.468-1.34,2.15c-0.46,0.66-0.94,1.29-1.42,1.89   c-0.46,0.618-0.95,1.212-1.47,1.78c-0.564,0.617-1.172,1.192-1.82,1.72l0,0c-0.184,0.138-0.444,0.107-0.59-0.07   c-0.037-0.051-0.064-0.109-0.08-0.17c-0.174-0.952-0.073-1.933,0.29-2.83c0.344-0.85,0.831-1.635,1.44-2.32   c0.59-0.672,1.262-1.266,2-1.77c0.753-0.518,1.593-0.897,2.48-1.12c0.258-0.062,0.517,0.097,0.579,0.355   c0,0.002,0.001,0.004,0.001,0.005c0.04,0.106,0.04,0.224,0,0.33L81.68,33.863z"/>
	<path fill="#1A2C4C" d="M84.7,38.563c-0.137,0.526-0.339,1.033-0.6,1.51c-0.217,0.416-0.468,0.814-0.75,1.19   c-0.256,0.374-0.562,0.71-0.91,1c-0.431,0.341-0.905,0.624-1.41,0.84l0,0c-0.243,0.107-0.527,0-0.64-0.24   c-0.279-0.613-0.325-1.306-0.13-1.95c0.179-0.565,0.479-1.084,0.88-1.52c0.388-0.423,0.844-0.778,1.35-1.05   c0.532-0.293,1.124-0.46,1.73-0.49c0.295-0.011,0.544,0.216,0.56,0.51c0.01,0.05,0.01,0.1,0,0.15L84.7,38.563z"/>
	
		<ellipse transform="matrix(0.9627 -0.2707 0.2707 0.9627 -38.0858 24.99)" fill="#1A2C4C" cx="71.534" cy="150.538" rx="21.112" ry="4.168"/>
	
		<ellipse transform="matrix(0.9615 -0.2748 0.2748 0.9615 -37.7577 26.3802)" fill="#FFFFFF" cx="75.271" cy="147.947" rx="4.66" ry="1.71"/>
	<path fill="#1A2C4C" d="M18.3,55.563c-0.453,4.53-0.436,9.094,0.05,13.62c0.23,2.26,0.54,4.52,1,6.72s1.15,4.36,1.88,6.49   c0.35,1.07,0.73,2.12,1.15,3.17s0.82,2.05,1.29,3.14c0.2,0.51,0.43,1,0.66,1.49l0.77,1.49c0.5,1,1,2,1.59,3   c2.243,4.046,4.246,8.22,6,12.5c0.069,0.19-0.023,0.402-0.21,0.48c-0.151,0.059-0.323,0.01-0.42-0.12   c-2.803-3.655-5.394-7.468-7.76-11.42c-0.61-1-1.2-2-1.75-3.06l-0.41-0.76l-0.4-0.81c-0.26-0.55-0.5-1.1-0.72-1.67   c-0.42-1-0.89-2.14-1.26-3.25s-0.73-2.24-1-3.37c-0.612-2.266-1.066-4.571-1.36-6.9c-0.351-2.32-0.578-4.656-0.68-7   c-0.318-4.624-0.086-9.27,0.69-13.84c0.039-0.24,0.266-0.402,0.506-0.363c0.005,0.001,0.01,0.002,0.014,0.003   C18.151,55.143,18.309,55.339,18.3,55.563z"/>
	<path fill="#1A2C4C" d="M94.89,113.813c3.74,2.55,8.5-1.21,12.15-4.77c3.94-3.86,7.93-9.93,4.07-13.88   C106.27,89.853,88.41,107.363,94.89,113.813z"/>
	<path fill="#FAB316" d="M111.11,95.163l-53.48-54.79L40.5,58.253l53.48,54.79c0.278,0.285,0.583,0.543,0.91,0.77   C88.41,107.363,106.27,89.853,111.11,95.163z"/>
	<path fill="#0CAEE0" d="M100.21,108.983c1.57,1.08,3.57-0.51,5.1-2s3.33-4.17,1.72-5.83C104.99,98.933,97.5,106.283,100.21,108.983   z"/>
	<path fill="#0CAEE0" d="M11.26,1.703l-8.92-1.62C1.392-0.215,0.381,0.312,0.083,1.26C-0.03,1.62-0.028,2.006,0.09,2.363l2.16,7.86   C3.71,7.613,6.68,3.403,11.26,1.703z"/>
	<path fill="#1A2C4C" d="M20.91,3.443l-9.65-1.74c-4.58,1.7-7.55,5.91-9,8.52l3.15,11.46c3.534-7.567,9.64-13.634,17.23-17.12   C22.165,4.053,21.571,3.668,20.91,3.443z"/>
	<path fill="#1A2C4C" d="M103.23,91.323c-1.27,0.858-2.473,1.811-3.6,2.85c-1.12,1.02-2.19,2.087-3.21,3.2c-1,1.11-2,2.26-2.94,3.44   s-1.84,2.36-2.77,3.69l0,0c-0.121,0.171-0.358,0.212-0.53,0.091c-0.098-0.069-0.157-0.181-0.16-0.301   c-0.001-0.431,0.022-0.862,0.07-1.29c0.068-0.422,0.162-0.839,0.28-1.25c0.231-0.82,0.546-1.614,0.94-2.37   c0.798-1.473,1.809-2.821,3-4c1.169-1.203,2.486-2.251,3.92-3.12c1.436-0.918,3.052-1.518,4.74-1.76   c0.249-0.018,0.469,0.162,0.5,0.41c0.02,0.17-0.057,0.336-0.2,0.43L103.23,91.323z"/>
</g>

        </g>
    </g>
</g>

<!-- ITEM 5 -->
<g>
    <defs>
        
        <clipPath id="clip-path-id-viewbox-item-5">
            <rect x="0.0" y="0.0" width="250.0" height="244.112"/>
        </clipPath>
    </defs>
    <g transform="translate(346.0 206.0) rotate(0.0 70.5 69.0) scale(0.564 0.5653142819689323)">
        <g clip-path="url(#clip-path-id-viewbox-item-5)" transform="translate(-0.0 -0.0)">
<title>circle_2 copy</title><g id="Layer_2-i5" data-name="Layer 2"><g id="circle_2_copy-i5" data-name="circle_2 copy"><path d="M250,122c0,67.379-56.006,119.593-125,122C39,247,0,189.379,0,122S45.964,0,115,0C209,0,250,54.621,250,122Z" fill="#00acdc"/></g></g>
        </g>
    </g>
</g>

<!-- ITEM 6 -->
<g>
    <defs>
        
        <clipPath id="clip-path-id-viewbox-item-6">
            <rect x="0.0" y="0.0" width="250.0" height="244.112"/>
        </clipPath>
    </defs>
    <g transform="translate(583.0 201.0) rotate(0.0 74.0 72.5) scale(0.592 0.5939896440977912)">
        <g clip-path="url(#clip-path-id-viewbox-item-6)" transform="translate(-0.0 -0.0)">
<title>circle_1</title><g id="Layer_2-i6" data-name="Layer 2"><g id="circle_1-i6"><path d="M250,122c0,67.379-56.006,119.593-125,122C39,247,0,189.379,0,122S45.964,0,115,0C209,0,250,54.621,250,122Z" fill="#04294f"/></g></g>
        </g>
    </g>
</g>

<!-- ITEM 7 -->
<g>
    <defs>
        
        <clipPath id="clip-path-id-viewbox-item-7">
            <rect x="0.0" y="0.0" width="231.086" height="230.085"/>
        </clipPath>
    </defs>
    <g transform="translate(818.0 201.0) rotate(0.0 71.5 71.5) scale(0.6188172368728525 0.621509442162679)">
        <g clip-path="url(#clip-path-id-viewbox-item-7)" transform="translate(-0.0 -0.0)">
<title>ring_2</title><g id="Layer_2-i7" data-name="Layer 2"><g id="ring_2-i7"><path d="M121,.085c104.938,3.619,111,85,110,119s-28,111-116,111-115-74-115-115S34-2.915,121,.085Zm-66,115c-3,33,31,59,61,61s65-20,63-61-24.1-58.221-63-61C74,51.085,58,82.085,55,115.085Z" fill="#ffb400"/></g></g>
        </g>
    </g>
</g>

<!-- ITEM 8 -->
<g>
    <defs>
        
        <clipPath id="clip-path-id-viewbox-item-8">
            <rect x="0.0" y="0.0" width="231.086" height="230.085"/>
        </clipPath>
    </defs>
    <g transform="translate(1057.0 200.0) rotate(0.0 72.0 72.0) scale(0.6231446301376976 0.6258556620379425)">
        <g clip-path="url(#clip-path-id-viewbox-item-8)" transform="translate(-0.0 -0.0)">
<title>ring_2</title><g id="Layer_2-i8" data-name="Layer 2"><g id="ring_2-i8"><path d="M121,.085c104.938,3.619,111,85,110,119s-28,111-116,111-115-74-115-115S34-2.915,121,.085Zm-66,115c-3,33,31,59,61,61s65-20,63-61-24.1-58.221-63-61C74,51.085,58,82.085,55,115.085Z" fill="#ffb400"/></g></g>
        </g>
    </g>
</g>

<!-- ITEM 9 -->
<g>
    <defs>
        
        <clipPath id="clip-path-id-viewbox-item-9">
            <rect x="0.0" y="0.0" width="36.9" height="36.2"/>
        </clipPath>
    </defs>
    <g transform="translate(367.0 200.0) rotate(0.0 56.0 56.0) scale(3.035230352303523 3.0939226519337013)">
        <g clip-path="url(#clip-path-id-viewbox-item-9)" transform="translate(-0.0 -0.0)">


<title>checkmark</title>
<g id="checkmark-i9">
	<path d="M15.1,36.2c-1.1,0-2.2-0.5-2.9-1.4L0.8,20.1c-1.2-1.6-1-3.9,0.6-5.1c1.6-1.2,3.9-1,5.1,0.6l0,0l8.2,10.6   L30.1,1.8c1-1.7,3.3-2.3,5-1.3s2.3,3.3,1.3,5l0,0c0,0.1-0.1,0.1-0.1,0.2L18.1,34.4C17.4,35.4,16.4,36,15.1,36.2L15.1,36.2   L15.1,36.2z" style="fill:#10294C;"/>
</g>

        </g>
    </g>
</g>

              </svg>